# Hierarchical Translation and Rotation (.htr) file
# Generated by EVaRT
[Header]
FileType htr
DataType HTRS
FileVersion 1
NumSegments 23
NumFrames 4
DataFrameRate 120
EulerRotationOrder ZYX
CalibrationUnits mm
RotationUnits Degrees
GlobalAxisofGravity Y
BoneLengthAxis Y
ScaleFactor 1
[SegmentNames&Hierarchy]
#CHILD            PARENT
DaveRoot          GLOBAL
Spine1            DaveRoot
Spine2            Spine1
Spine3            Spine2
Spine4            Spine3
Neck              Spine4
Head              Neck
LClavicle         Spine4
LUpperArm         LClavicle
LLowerArm         LUpperArm
LHand             LLowerArm
RClavicle         Spine4
RUpperArm         RClavicle
RLowerArm         RUpperArm
RHand             RLowerArm
RUpperLeg         DaveRoot
RLowerLeg         RUpperLeg
RFoot             RLowerLeg
RToes             RFoot
LUpperLeg         DaveRoot
LLowerLeg         LUpperLeg
LFoot             LLowerLeg
LToes             LFoot
[BasePosition]
#SegmentName      Tx   Ty   Tz   Rx   Ry   Rz   BoneLength
DaveRoot          1078.678277	988.889323	-667.355416	21.100172	-35.850280	-13.563871	100.000000
Spine1            0.000000	100.000000	0.000000	-14.881963	2.292165	3.740750	100.000000
Spine2            0.000000	100.000000	0.000000	6.530342	0.668586	4.295175	100.000000
Spine3            0.000000	100.000000	0.000000	12.838786	0.191691	4.342582	100.000000
Spine4            0.000000	100.000000	0.000000	14.062130	1.171471	5.872723	100.000000
Neck              0.000000	100.000000	0.000000	7.737895	11.498691	-3.920750	80.000000
Head              0.000000	80.000000	0.000000	-47.820279	-9.378091	-2.499782	200.000000
LClavicle         0.000000	100.000000	0.000000	7.006000	0.163524	-123.648937	200.000000
LUpperArm         0.000000	200.000000	0.000000	39.957204	52.516966	-16.160711	300.000000
LLowerArm         0.000000	300.000000	0.000000	-1.806693	2.175812	1.895763	200.000000
LHand             0.000000	200.000000	0.000000	16.195035	-1.768569	8.793625	120.000000
RClavicle         0.000000	100.000000	0.000000	3.329328	-3.962094	109.315139	200.000000
RUpperArm         0.000000	200.000000	0.000000	31.467517	-27.516660	21.198784	300.000000
RLowerArm         0.000000	300.000000	0.000000	20.023297	-3.682026	-7.348670	200.000000
RHand             0.000000	200.000000	0.000000	6.266882	13.427731	10.826414	120.000000
RUpperLeg         -115.911102	-10.000000	31.058285	22.207319	27.607647	-154.283666	530.000000
RLowerLeg         0.000000	530.000000	0.000000	-15.604109	0.479387	-2.520024	460.000000
RFoot             0.000000	460.000000	0.000000	98.099007	-9.797309	28.788465	130.000000
RToes             0.000000	130.000000	0.000000	-15.148141	0.005479	-0.002881	100.000000
LUpperLeg         115.911102	-10.000000	31.058285	41.660003	-3.682702	-163.432677	530.000000
LLowerLeg         0.000000	530.000000	0.000000	-22.778950	-3.275937	3.046484	460.000000
LFoot             0.000000	460.000000	0.000000	77.647326	-23.190969	-3.622247	130.000000
LToes             0.000000	130.000000	0.000000	14.512714	-0.000000	-0.000086	100.000000
#Beginning of Data.
[DaveRoot]
#Fr	Tx	Ty	Tz	Rx	Ry	Rz	SF
637	-1200.772043	-845.755350	922.820475	67.359858	14.240508	-31.671401	1.000000	
638	-1206.440875	-845.908721	921.276305	67.575004	14.933013	-29.891550	1.000000	
639	-1212.313058	-846.228593	919.648807	67.799003	15.694935	-28.071409	1.000000	
640	-1218.425452	-846.716756	917.920932	68.038188	16.538265	-26.198808	1.000000	
[Spine1]
#Fr	Tx	Ty	Tz	Rx	Ry	Rz	SF
637	0.000000	0.000000	0.000000	-4.500062	-0.201833	0.982989	1.000000	
638	0.000000	0.000000	0.000000	-4.557111	-0.181132	1.012171	1.000000	
639	0.000000	0.000000	0.000000	-4.622226	-0.176581	1.047938	1.000000	
640	0.000000	0.000000	0.000000	-4.698618	-0.190490	1.088043	1.000000	
[Spine2]
#Fr	Tx	Ty	Tz	Rx	Ry	Rz	SF
637	0.000000	0.000000	0.000000	-4.500062	-0.201833	0.982989	1.000000	
638	0.000000	0.000000	0.000000	-4.557111	-0.181132	1.012171	1.000000	
639	0.000000	0.000000	0.000000	-4.622226	-0.176581	1.047938	1.000000	
640	0.000000	0.000000	0.000000	-4.698618	-0.190490	1.088043	1.000000	
[Spine3]
#Fr	Tx	Ty	Tz	Rx	Ry	Rz	SF
637	0.000000	0.000000	0.000000	-4.500062	-0.201833	0.982989	1.000000	
638	0.000000	0.000000	0.000000	-4.557111	-0.181132	1.012171	1.000000	
639	0.000000	0.000000	0.000000	-4.622226	-0.176581	1.047938	1.000000	
640	0.000000	0.000000	0.000000	-4.698618	-0.190490	1.088043	1.000000	
[Spine4]
#Fr	Tx	Ty	Tz	Rx	Ry	Rz	SF
637	0.000000	0.000000	0.000000	-4.500062	-0.201833	0.982989	1.000000	
638	0.000000	0.000000	0.000000	-4.557111	-0.181132	1.012171	1.000000	
639	0.000000	0.000000	0.000000	-4.622226	-0.176581	1.047938	1.000000	
640	0.000000	0.000000	0.000000	-4.698618	-0.190490	1.088043	1.000000	
[Neck]
#Fr	Tx	Ty	Tz	Rx	Ry	Rz	SF
637	0.000000	0.000000	0.000000	7.574361	-5.983676	5.363311	1.000000	
638	0.000000	0.000000	0.000000	7.152868	-5.917810	4.983516	1.000000	
639	0.000000	0.000000	0.000000	6.737993	-5.798961	4.633365	1.000000	
640	0.000000	0.000000	0.000000	6.338437	-5.638603	4.325315	1.000000	
[Head]
#Fr	Tx	Ty	Tz	Rx	Ry	Rz	SF
637	0.000000	0.000000	0.000000	7.574361	-5.983676	5.363311	1.000000	
638	0.000000	0.000000	0.000000	7.152868	-5.917810	4.983516	1.000000	
639	0.000000	0.000000	0.000000	6.737993	-5.798961	4.633365	1.000000	
640	0.000000	0.000000	0.000000	6.338437	-5.638603	4.325315	1.000000	
[LClavicle]
#Fr	Tx	Ty	Tz	Rx	Ry	Rz	SF
637	0.000000	0.000000	0.000000	10.037205	-3.352200	37.609361	1.000000	
638	0.000000	0.000000	0.000000	10.328434	-3.373089	37.220325	1.000000	
639	0.000000	0.000000	0.000000	10.607427	-3.394335	36.871779	1.000000	
640	0.000000	0.000000	0.000000	10.890586	-3.420649	36.557106	1.000000	
[LUpperArm]
#Fr	Tx	Ty	Tz	Rx	Ry	Rz	SF
637	0.000000	0.000000	0.000000	25.998482	64.041197	124.277749	1.000000	
638	0.000000	0.000000	0.000000	25.910770	63.970235	124.286059	1.000000	
639	0.000000	0.000000	0.000000	25.820090	63.850475	124.250612	1.000000	
640	0.000000	0.000000	0.000000	25.755816	63.683396	124.199509	1.000000	
[LLowerArm]
#Fr	Tx	Ty	Tz	Rx	Ry	Rz	SF
637	0.000000	0.000000	0.000000	-94.973802	0.000000	0.000000	1.000000	
638	0.000000	0.000000	0.000000	-95.303554	0.000000	0.000000	1.000000	
639	0.000000	0.000000	0.000000	-95.573158	0.000000	0.000000	1.000000	
640	0.000000	0.000000	0.000000	-95.765643	0.000000	0.000000	1.000000	
[LHand]
#Fr	Tx	Ty	Tz	Rx	Ry	Rz	SF
637	0.000000	0.000000	0.000000	20.697613	-0.000000	0.000000	1.000000	
638	0.000000	0.000000	0.000000	21.085444	-0.000000	0.000000	1.000000	
639	0.000000	0.000000	0.000000	21.468728	-0.000000	0.000000	1.000000	
640	0.000000	0.000000	0.000000	21.807648	-0.000000	0.000000	1.000000	
[RClavicle]
#Fr	Tx	Ty	Tz	Rx	Ry	Rz	SF
637	0.000000	0.000000	0.000000	2.560465	0.764512	-18.129675	1.000000	
638	0.000000	0.000000	0.000000	2.507786	0.764109	-18.450877	1.000000	
639	0.000000	0.000000	0.000000	2.484465	0.770255	-18.730148	1.000000	
640	0.000000	0.000000	0.000000	2.491675	0.782400	-18.937598	1.000000	
[RUpperArm]
#Fr	Tx	Ty	Tz	Rx	Ry	Rz	SF
637	0.000000	0.000000	0.000000	44.071160	72.864872	-48.661786	1.000000	
638	0.000000	0.000000	0.000000	43.696741	72.614662	-49.752498	1.000000	
639	0.000000	0.000000	0.000000	43.073069	72.331334	-51.104916	1.000000	
640	0.000000	0.000000	0.000000	42.194708	71.997799	-52.735856	1.000000	
[RLowerArm]
#Fr	Tx	Ty	Tz	Rx	Ry	Rz	SF
637	0.000000	0.000000	0.000000	34.010462	0.000000	0.000000	1.000000	
638	0.000000	0.000000	0.000000	33.400824	0.000000	0.000000	1.000000	
639	0.000000	0.000000	0.000000	32.768248	0.000000	0.000000	1.000000	
640	0.000000	0.000000	0.000000	32.089848	0.000000	0.000000	1.000000	
[RHand]
#Fr	Tx	Ty	Tz	Rx	Ry	Rz	SF
637	0.000000	0.000000	0.000000	14.013825	-6.143838	-34.401263	1.000000	
638	0.000000	0.000000	0.000000	13.773533	-5.554924	-34.183602	1.000000	
639	0.000000	0.000000	0.000000	13.448345	-4.906527	-33.910599	1.000000	
640	0.000000	0.000000	0.000000	13.037978	-4.174983	-33.556904	1.000000	
[RUpperLeg]
#Fr	Tx	Ty	Tz	Rx	Ry	Rz	SF
637	0.000000	0.000000	0.000000	4.127947	-33.851576	-17.258523	1.000000	
638	0.000000	0.000000	0.000000	4.072604	-34.375867	-17.636433	1.000000	
639	0.000000	0.000000	0.000000	3.892403	-34.949696	-17.901036	1.000000	
640	0.000000	0.000000	0.000000	3.583903	-35.559825	-18.034572	1.000000	
[RLowerLeg]
#Fr	Tx	Ty	Tz	Rx	Ry	Rz	SF
637	0.000000	0.000000	0.000000	-17.531829	-0.000000	0.000000	1.000000	
638	0.000000	0.000000	0.000000	-17.853409	-0.000000	0.000000	1.000000	
639	0.000000	0.000000	0.000000	-18.126620	-0.000000	0.000000	1.000000	
640	0.000000	0.000000	0.000000	-18.373771	-0.000000	0.000000	1.000000	
[RFoot]
#Fr	Tx	Ty	Tz	Rx	Ry	Rz	SF
637	0.000000	0.000000	0.000000	-41.094602	-32.552136	-3.834887	1.000000	
638	0.000000	0.000000	0.000000	-41.319352	-32.384508	-3.431070	1.000000	
639	0.000000	0.000000	0.000000	-41.363976	-32.278875	-3.073911	1.000000	
640	0.000000	0.000000	0.000000	-41.174044	-32.190245	-2.781333	1.000000	
[RToes]
#Fr	Tx	Ty	Tz	Rx	Ry	Rz	SF
637	0.000000	0.000000	0.000000	36.447624	0.000000	0.000000	1.000000	
638	0.000000	0.000000	0.000000	36.629590	0.000000	0.000000	1.000000	
639	0.000000	0.000000	0.000000	36.851930	0.000000	0.000000	1.000000	
640	0.000000	0.000000	0.000000	37.026116	0.000000	0.000000	1.000000	
[LUpperLeg]
#Fr	Tx	Ty	Tz	Rx	Ry	Rz	SF
637	0.000000	0.000000	0.000000	-23.539969	16.843717	-35.703160	1.000000	
638	0.000000	0.000000	0.000000	-23.560913	15.959071	-35.972718	1.000000	
639	0.000000	0.000000	0.000000	-23.640074	14.982297	-36.115260	1.000000	
640	0.000000	0.000000	0.000000	-23.813365	14.046872	-36.185461	1.000000	
[LLowerLeg]
#Fr	Tx	Ty	Tz	Rx	Ry	Rz	SF
637	0.000000	0.000000	0.000000	11.709665	0.000000	0.000000	1.000000	
638	0.000000	0.000000	0.000000	11.125496	0.000000	0.000000	1.000000	
639	0.000000	0.000000	0.000000	10.545344	0.000000	0.000000	1.000000	
640	0.000000	0.000000	0.000000	10.002298	0.000000	0.000000	1.000000	
[LFoot]
#Fr	Tx	Ty	Tz	Rx	Ry	Rz	SF
637	0.000000	0.000000	0.000000	7.296040	-41.978879	-33.272705	1.000000	
638	0.000000	0.000000	0.000000	7.487760	-40.252391	-34.154341	1.000000	
639	0.000000	0.000000	0.000000	7.967841	-39.438928	-35.247304	1.000000	
640	0.000000	0.000000	0.000000	8.794055	-39.779319	-36.505190	1.000000	
[LToes]
#Fr	Tx	Ty	Tz	Rx	Ry	Rz	SF
637	0.000000	0.000000	0.000000	-33.095863	0.000000	0.000000	1.000000	
638	0.000000	0.000000	0.000000	-33.139618	0.000000	0.000000	1.000000	
639	0.000000	0.000000	0.000000	-33.947712	0.000000	0.000000	1.000000	
640	0.000000	0.000000	0.000000	-35.617427	0.000000	0.000000	1.000000	
